<!-- <svg xmlns="http://www.w3.org/2000/svg" fill="none" class="icon icon-account" viewBox="0 0 18 19"><path fill="currentColor" fill-rule="evenodd" d="M6 4.5a3 3 0 1 1 6 0 3 3 0 0 1-6 0m3-4a4 4 0 1 0 0 8 4 4 0 0 0 0-8m5.58 12.15c1.12.82 1.83 2.24 1.91 4.85H1.51c.08-2.6.79-4.03 1.9-4.85C4.66 11.75 6.5 11.5 9 11.5s4.35.26 5.58 1.15M9 10.5c-2.5 0-4.65.24-6.17 1.35C1.27 12.98.5 14.93.5 18v.5h17V18c0-3.07-.77-5.02-2.33-6.15-1.52-1.1-3.67-1.35-6.17-1.35" clip-rule="evenodd"/></svg> -->


<svg class="icon-account-new" xmlns="http://www.w3.org/2000/svg" width="25" height="25" viewBox="0 0 25 25" fill="none" style="&#10;    /* background: red; */&#10;">
<path d="M21.3389 16.1611C19.9774 14.7997 18.3569 13.7918 16.5888 13.1817C18.4825 11.8775 19.7266 9.69473 19.7266 7.22656C19.7266 3.24185 16.4847 0 12.5 0C8.51528 0 5.27344 3.24185 5.27344 7.22656C5.27344 9.69473 6.51753 11.8775 8.41123 13.1817C6.64316 13.7918 5.02266 14.7997 3.66118 16.1611C1.30024 18.5221 0 21.6611 0 25H1.95312C1.95312 19.1844 6.68442 14.4531 12.5 14.4531C18.3156 14.4531 23.0469 19.1844 23.0469 25H25C25 21.6611 23.6998 18.5221 21.3389 16.1611ZM12.5 12.5C9.59224 12.5 7.22656 10.1344 7.22656 7.22656C7.22656 4.31875 9.59224 1.95312 12.5 1.95312C15.4078 1.95312 17.7734 4.31875 17.7734 7.22656C17.7734 10.1344 15.4078 12.5 12.5 12.5Z" fill="white"/>
</svg>